<svg xmlns="http://www.w3.org/2000/svg" xmlns:xlink="http://www.w3.org/1999/xlink"
  viewBox="0 0 6500 1250"
  preserveAspectRatio="xMinYMid meet"
  style="background: {background}">
    <path fill="{background}" d="M0 0h6500v1250H0z"/>
    <g style="mix-blend-mode:normal" fill="{foreground}">
      <use xlink:href="#path3_fill" transform="translate(325 214) scale(8.12679)" style="mix-blend-mode:normal" width="100%" height="100%"/>
      <use xlink:href="#path4_fill" transform="translate(240 533) scale(8.12679)" style="mix-blend-mode:normal" width="100%" height="100%"/>
    </g>

    <text x="1150" y="965" font-weight="700" font-size="1030" font-family="Open Sans" letter-spacing="0" word-spacing="0" fill="{foreground}" stroke-width="1.242">
        Podosfera
    </text>

    <defs id="defs28">
      <style type="text/css">
        @font-face {
        font-family: 'Open Sans';
        src: url('../../fonts/OpenSans-Bold.ttf') format('truetype');
        font-weight: 700;
        font-style: normal; }
      </style>
        <path id="path3_fill" d="M82.356 35.542C78.106 14.52 68.874-1.353 61.734.092c-3.103.625-5.298 4.423-6.441 10.24-3.755 4.282-18.947 20.017-46.515 28.911a88.08 88.08 0 0 0-2.12.714c-15.443 14.701.817 27.86.817 27.86h-.016c.138.01.276.02.418.033 2.25.22 6.59.52 7.738 2.921 0 0 4.559 5.978 5.18 17.375 0 0 1.659 10.36 15.128 8.495 0 0 1.968-2.486-.415-3.729 0 0-.725-2.176.622-1.76 0 0 1.349-4.25-2.28-5.39l-.725-4.973s-2.176-1.76-3.212-4.248l.104-3.834s-4.87-3.004-.415-7.252c0 0 27.659-.572 41.922 8.821.503.415 1.003.77 1.502 1.06.029.023.063.042.092.065a2.82 2.82 0 0 0 1.08.503c1 .385 1.98.504 2.92.313 7.14-1.442 9.485-19.654 5.238-40.675zM60.494 67.128c-2.998-.872-6.078-1.442-9.165-1.882-6.31-.898-12.75-1.229-19.12-1.075-1.806.044-4.864-1.907-6.33-2.88a14.799 14.799 0 0 1-4.387-4.512c-2.914-4.682-3.078-10.153-.69-15.063 1.188-2.438 2.596-4.843 4.842-6.438 2.992-2.125 6.444-3.547 9.542-5.507 5.214-3.296 10.189-6.96 14.976-10.85.967-.787 5.588-6.058 5.816-7.445-.061.37-.104.736-.158 1.105.029-.082.059-.162.069-.226a63.776 63.776 0 0 0-.591 4.771c-1.583 20.393 6.072 39.441 10.27 48.158 1.27 2.575 2.135 4.034 2.135 4.034a2.311 2.311 0 0 0-.198-.245c.417.77.665 1.188.665 1.188-1.078-1.642-5.9-2.615-7.676-3.133zm9.786-4.487c-.258.06-.531.02-.812-.065-.006.001-.01.006-.016.008-2.954.69-7.626-8.492-10.437-20.509-2.81-12.017-2.693-22.317.259-23.009.257-.06.53-.02.812.065.007 0 .01-.006.016-.007 2.953-.689 7.625 8.492 10.437 20.51 2.81 12.016 2.692 22.316-.26 23.007z"/>
        <path id="path4_fill" d="M16.795 28.476c-5.637 0-10.206-6.212-10.206-13.875 0-7.362 4.221-13.369 9.551-13.83A10.224 10.224 0 0 0 12.28 0C5.498 0 0 6.742 0 15.057c0 8.316 5.498 15.058 12.28 15.058 2.072 0 4.021-.636 5.733-1.746-.4.064-.805.107-1.218.107z"/>
    </defs>
</svg>
