<?xml version="1.0" encoding="UTF-8" standalone="no"?>
<svg
   xmlns:dc="http://purl.org/dc/elements/1.1/"
   xmlns:cc="http://creativecommons.org/ns#"
   xmlns:rdf="http://www.w3.org/1999/02/22-rdf-syntax-ns#"
   xmlns:svg="http://www.w3.org/2000/svg"
   xmlns="http://www.w3.org/2000/svg"
   xmlns:xlink="http://www.w3.org/1999/xlink"
   xmlns:sodipodi="http://sodipodi.sourceforge.net/DTD/sodipodi-0.dtd"
   xmlns:inkscape="http://www.inkscape.org/namespaces/inkscape"
   width="1750"
   height="1750"
   viewBox="0 0 1750 1750"
   preserveAspectRatio="xMinYMid meet"
   style="background: transparent"
   version="1.1"
   id="svg11"
   sodipodi:docname="megafono-v1-solo.svg"
   inkscape:version="0.92.2 2405546, 2018-03-11">

  <use
     id="big_part"
     height="100%"
     width="100%"
     style="mix-blend-mode:normal;fill:#000000"
     transform="scale(15)"
     y="9"
     x="20"
     xlink:href="#path3_fill" />
  <use
     id="small_part"
     height="100%"
     width="100%"
     style="mix-blend-mode:normal;fill:#000000"
     transform="matrix(15,0,0,15,27.527727,-2.6216883)"
     x="9"
     y="48.299999"
     xlink:href="#path4_fill" />
  <defs
     id="defs28">
    <path
       id="path3_fill"
       d="M82.356 35.542C78.106 14.52 68.874-1.353 61.734.092c-3.103.625-5.298 4.423-6.441 10.24-3.755 4.282-18.947 20.017-46.515 28.911a88.08 88.08 0 0 0-2.12.714c-15.443 14.701.817 27.86.817 27.86h-.016c.138.01.276.02.418.033 2.25.22 6.59.52 7.738 2.921 0 0 4.559 5.978 5.18 17.375 0 0 1.659 10.36 15.128 8.495 0 0 1.968-2.486-.415-3.729 0 0-.725-2.176.622-1.76 0 0 1.349-4.25-2.28-5.39l-.725-4.973s-2.176-1.76-3.212-4.248l.104-3.834s-4.87-3.004-.415-7.252c0 0 27.659-.572 41.922 8.821.503.415 1.003.77 1.502 1.06.029.023.063.042.092.065a2.82 2.82 0 0 0 1.08.503c1 .385 1.98.504 2.92.313 7.14-1.442 9.485-19.654 5.238-40.675zM60.494 67.128c-2.998-.872-6.078-1.442-9.165-1.882-6.31-.898-12.75-1.229-19.12-1.075-1.806.044-4.864-1.907-6.33-2.88a14.799 14.799 0 0 1-4.387-4.512c-2.914-4.682-3.078-10.153-.69-15.063 1.188-2.438 2.596-4.843 4.842-6.438 2.992-2.125 6.444-3.547 9.542-5.507 5.214-3.296 10.189-6.96 14.976-10.85.967-.787 5.588-6.058 5.816-7.445-.061.37-.104.736-.158 1.105.029-.082.059-.162.069-.226a63.776 63.776 0 0 0-.591 4.771c-1.583 20.393 6.072 39.441 10.27 48.158 1.27 2.575 2.135 4.034 2.135 4.034a2.311 2.311 0 0 0-.198-.245c.417.77.665 1.188.665 1.188-1.078-1.642-5.9-2.615-7.676-3.133zm9.786-4.487c-.258.06-.531.02-.812-.065-.006.001-.01.006-.016.008-2.954.69-7.626-8.492-10.437-20.509-2.81-12.017-2.693-22.317.259-23.009.257-.06.53-.02.812.065.007 0 .01-.006.016-.007 2.953-.689 7.625 8.492 10.437 20.51 2.81 12.016 2.692 22.316-.26 23.007z" />
    <path
       id="path4_fill"
       d="M16.795 28.476c-5.637 0-10.206-6.212-10.206-13.875 0-7.362 4.221-13.369 9.551-13.83A10.224 10.224 0 0 0 12.28 0C5.498 0 0 6.742 0 15.057c0 8.316 5.498 15.058 12.28 15.058 2.072 0 4.021-.636 5.733-1.746-.4.064-.805.107-1.218.107z" />
  </defs>
  <path
     style="opacity:1;fill:#ffffff;fill-opacity:1;stroke:none;stroke-width:222.45762634;stroke-linecap:round;stroke-linejoin:round;stroke-miterlimit:4;stroke-dasharray:none;stroke-dashoffset:0;stroke-opacity:1;paint-order:normal"
     d="m 1288.7712,1167.2338 c -93.5034,-35.7953 -251.4301,-61.7036 -422.66951,-69.3402 -116.62955,-5.2011 -142.55617,-12.7728 -196.77992,-57.4686 -54.32993,-44.78332 -91.54116,-136.89523 -80.96963,-200.43055 16.34693,-98.24569 63.25114,-160.09138 163.69964,-215.84662 147.44223,-81.83974 291.88932,-190.95244 351.29602,-265.3627 18.3297,-22.9589 33.9536,-41.11651 34.7199,-40.35024 0.7662,0.76626 -2.0473,28.03623 -6.2523,60.59992 -24.911,192.9111 33.0416,478.03353 146.7918,722.20539 17.8789,38.3781 31.6509,70.5236 30.6046,71.4344 -1.0464,0.9108 -10.2446,-1.5375 -20.4406,-5.4408 z"
     id="path4529"
     inkscape:connector-curvature="0" />
  <path
     style="opacity:1;fill:#ffffff;fill-opacity:1;stroke:none;stroke-width:222.45762634;stroke-linecap:round;stroke-linejoin:round;stroke-miterlimit:4;stroke-dasharray:none;stroke-dashoffset:0;stroke-opacity:1;paint-order:normal"
     d="m 1300.1022,1048.895 c -68.5156,-81.4261 -134.0833,-303.68927 -141.8618,-480.88653 -3.5311,-80.44053 -2.2795,-96.12071 9.4704,-118.64406 27.153,-52.04978 65.589,-32.38273 111.9424,57.27901 33.8032,65.38595 68.4374,169.23574 86.8764,260.49681 24.1593,119.57252 26.1128,267.10867 3.8912,293.88407 -16.0241,19.3079 -48.5931,13.6901 -70.3186,-12.1293 z"
     id="path4533"
     inkscape:connector-curvature="0" />
  <path
     style="opacity:1;fill:#ffffff;fill-opacity:1;stroke:none;stroke-width:39.32532501;stroke-linecap:round;stroke-linejoin:round;stroke-miterlimit:4;stroke-dasharray:none;stroke-dashoffset:0;stroke-opacity:1;paint-order:normal"
     d="m 392.96422,1147.1814 c -65.16503,-12.7827 -117.48875,-81.6406 -129.26714,-170.11516 -2.3827,-17.89797 -2.3827,-54.55596 0,-72.45392 9.73999,-73.16296 46.8177,-132.97594 98.51382,-158.92042 9.19754,-4.61593 29.86566,-11.31058 34.91869,-11.31058 1.97299,0 -0.99898,3.77403 -11.61652,14.75155 -88.47856,91.47825 -108.44353,192.29509 -58.21197,293.95223 16.09988,32.5825 37.79644,62.5778 65.18712,90.1206 15.24471,15.3293 15.29594,15.4017 10.80106,15.2587 -2.48397,-0.079 -7.13025,-0.6563 -10.32506,-1.283 z"
     id="path4537"
     inkscape:connector-curvature="0" />
</svg>
