<?xml version="1.0" encoding="UTF-8" standalone="no"?>
<svg
   xmlns:figma="http://www.figma.com/figma/ns"
   xmlns:dc="http://purl.org/dc/elements/1.1/"
   xmlns:cc="http://creativecommons.org/ns#"
   xmlns:rdf="http://www.w3.org/1999/02/22-rdf-syntax-ns#"
   xmlns:svg="http://www.w3.org/2000/svg"
   xmlns="http://www.w3.org/2000/svg"
   xmlns:xlink="http://www.w3.org/1999/xlink"
   xmlns:sodipodi="http://sodipodi.sourceforge.net/DTD/sodipodi-0.dtd"
   xmlns:inkscape="http://www.inkscape.org/namespaces/inkscape"
   viewBox="0 0 1750 1750"
   version="1.1"
   id="svg2"
   inkscape:version="0.92.2 2405546, 2018-03-11"
   sodipodi:docname="megafono-v1-changelog.svg"
   inkscape:export-filename="/home/duke/Documents/Megafono/megafono-changelog.png"
   inkscape:export-xdpi="164.57001"
   inkscape:export-ydpi="164.57001"
   width="1750"
   height="1750">
  <metadata
     id="metadata37">
    <rdf:RDF>
      <cc:Work
         rdf:about="">
        <dc:format>image/svg+xml</dc:format>
        <dc:type
           rdf:resource="http://purl.org/dc/dcmitype/StillImage" />
        <dc:title>pink</dc:title>
      </cc:Work>
    </rdf:RDF>
  </metadata>
  <sodipodi:namedview
     pagecolor="#ffffff"
     bordercolor="#666666"
     borderopacity="1"
     objecttolerance="10"
     gridtolerance="10"
     guidetolerance="10"
     inkscape:pageopacity="0"
     inkscape:pageshadow="2"
     inkscape:window-width="1366"
     inkscape:window-height="704"
     id="namedview35"
     showgrid="false"
     inkscape:zoom="0.23422912"
     inkscape:cx="1105.6472"
     inkscape:cy="753.59939"
     inkscape:window-x="0"
     inkscape:window-y="27"
     inkscape:window-maximized="1"
     inkscape:current-layer="layer1"
     inkscape:snap-global="false"
     showguides="true"
     inkscape:guide-bbox="true">
    <sodipodi:guide
       position="2022.6415,1376.6038"
       orientation="0,1"
       id="guide3724"
       inkscape:locked="false" />
    <sodipodi:guide
       position="1763.0189,72.45283"
       orientation="0,1"
       id="guide3726"
       inkscape:locked="false" />
    <sodipodi:guide
       position="229.43396,-978.11321"
       orientation="0,1"
       id="guide3728"
       inkscape:locked="false" />
    <sodipodi:guide
       position="217.35849,428.67925"
       orientation="0,1"
       id="guide3730"
       inkscape:locked="false" />
    <sodipodi:guide
       position="156.98113,368.30189"
       orientation="0,1"
       id="guide3732"
       inkscape:locked="false" />
    <sodipodi:guide
       position="84.528302,913.96227"
       orientation="1,0"
       id="guide1000"
       inkscape:locked="false" />
    <sodipodi:guide
       position="1665.283,908.30189"
       orientation="1,0"
       id="guide1002"
       inkscape:locked="false" />
    <sodipodi:guide
       position="881.50943,1080.7547"
       orientation="1,0"
       id="guide1636"
       inkscape:locked="false" />
  </sodipodi:namedview>
  <title
     id="title4">pink</title>
  <desc
     id="desc6">Created using Figma</desc>
  <g
     inkscape:groupmode="layer"
     id="layer4"
     inkscape:label="Canvas"
     style="display:inline"
     transform="translate(0,730)"
     sodipodi:insensitive="true">
    <rect
       style="display:inline;opacity:1;fill:#0e2430;fill-opacity:1;stroke:none;stroke-width:25.65167618;stroke-linecap:round;stroke-linejoin:round;stroke-miterlimit:4;stroke-dasharray:none;stroke-dashoffset:0;stroke-opacity:1;paint-order:normal"
       id="rect953"
       width="1750"
       height="1750"
       x="0"
       y="-730" />
  </g>
  <g
     inkscape:groupmode="layer"
     id="layer1"
     inkscape:label="Text"
     transform="translate(0,730)"
     style="display:inline">
    <flowRoot
       xml:space="preserve"
       id="flowRoot4153"
       style="font-style:normal;font-weight:normal;font-size:40px;line-height:51.99999809%;font-family:sans-serif;letter-spacing:0px;word-spacing:0px;fill:#000000;fill-opacity:1;stroke:none;stroke-width:1px;stroke-linecap:butt;stroke-linejoin:miter;stroke-opacity:1"
       transform="translate(2.7498817e-4,86.348004)"><flowRegion
         id="flowRegion4155"><rect
           id="rect4157"
           width="768.47833"
           height="2328.9163"
           x="160.09966"
           y="981.57611" /></flowRegion><flowPara
         id="flowPara4159" /></flowRoot>    <text
       xml:space="preserve"
       style="font-style:normal;font-weight:normal;font-size:49.6607933px;line-height:51.99999809%;font-family:sans-serif;letter-spacing:0px;word-spacing:0px;fill:#ffffff;fill-opacity:0.94117647;stroke:none;stroke-width:1.24151981px;stroke-linecap:butt;stroke-linejoin:miter;stroke-opacity:1"
       x="867.99829"
       y="445.2276"
       id="text4161"><tspan
         sodipodi:role="line"
         id="tspan4163"
         x="867.99829"
         y="445.2276"
         style="font-style:normal;font-variant:normal;font-weight:bold;font-stretch:normal;font-size:289.68795776px;line-height:50.99999905%;font-family:'Open Sans';-inkscape-font-specification:'Open Sans, Bold';font-variant-ligatures:normal;font-variant-caps:normal;font-variant-numeric:normal;font-feature-settings:normal;text-align:center;writing-mode:lr-tb;text-anchor:middle;fill:#ffffff;fill-opacity:0.94117647;stroke:none;stroke-width:1.24151981px;stroke-opacity:1">Megafono</tspan></text>
    <flowRoot
       xml:space="preserve"
       id="flowRoot945"
       style="font-style:normal;font-weight:normal;font-size:40px;line-height:1.25;font-family:sans-serif;letter-spacing:0px;word-spacing:0px;fill:#000000;fill-opacity:1;stroke:none"
       transform="translate(2.7498817e-4,-643.65197)"><flowRegion
         id="flowRegion947"><rect
           id="rect949"
           width="12.075472"
           height="48.301888"
           x="809.05658"
           y="1158.3019" /></flowRegion><flowPara
         id="flowPara951"></flowPara></flowRoot>    <text
       xml:space="preserve"
       style="font-style:normal;font-weight:normal;font-size:40px;line-height:1.25;font-family:sans-serif;letter-spacing:0px;word-spacing:0px;fill:#000000;fill-opacity:1;stroke:none"
       x="428.67926"
       y="482.64148"
       id="text998"><tspan
         sodipodi:role="line"
         id="tspan996"
         x="428.67926"
         y="482.64148">t</tspan></text>
    <g
       id="g4161"
       style="display:inline;mix-blend-mode:normal;fill:#ffffff;fill-opacity:1"
       figma:type="frame"
       transform="matrix(6.6840504,0,0,6.6840504,-61.788321,-1867.5492)">
      <g
         id="g4163"
         style="mix-blend-mode:normal;fill:#ffffff;fill-opacity:1"
         figma:type="vector">
        <use
           xlink:href="#path2_fill"
           transform="translate(50.6534,244.11)"
           style="mix-blend-mode:normal;fill:#ffffff;fill-opacity:1"
           id="use4165"
           x="0"
           y="0"
           width="100%"
           height="100%" />
      </g>
      <g
         id="g4167"
         style="mix-blend-mode:normal;fill:#ffffff;fill-opacity:1"
         figma:type="vector">
        <use
           xlink:href="#path3_fill"
           transform="translate(44.2638,204.157)"
           style="mix-blend-mode:normal;fill:#ffffff;fill-opacity:1"
           id="use4169"
           x="0"
           y="0"
           width="100%"
           height="100%" />
      </g>
      <g
         id="g4171"
         style="mix-blend-mode:normal;fill:#ffffff;fill-opacity:1"
         figma:type="vector">
        <use
           xlink:href="#path4_fill"
           transform="translate(34.0424,243.443)"
           style="mix-blend-mode:normal;fill:#ffffff;fill-opacity:1"
           id="use4173"
           x="0"
           y="0"
           width="100%"
           height="100%" />
      </g>
    </g>
    <text
       xml:space="preserve"
       style="font-style:normal;font-weight:normal;font-size:46.47796631px;line-height:51.99999809%;font-family:sans-serif;letter-spacing:0px;word-spacing:0px;display:inline;fill:#ffffff;fill-opacity:0.94117647;stroke:none;stroke-width:1.16194916px;stroke-linecap:butt;stroke-linejoin:miter;stroke-opacity:1"
       x="881.42297"
       y="794.36694"
       id="text4161-7"><tspan
         sodipodi:role="line"
         id="tspan4163-5"
         x="881.42297"
         y="794.36694"
         style="font-style:normal;font-variant:normal;font-weight:bold;font-stretch:normal;font-size:271.12145996px;line-height:50.99999905%;font-family:'Open Sans';-inkscape-font-specification:'Open Sans, Bold';font-variant-ligatures:normal;font-variant-caps:normal;font-variant-numeric:normal;font-feature-settings:normal;text-align:center;writing-mode:lr-tb;text-anchor:middle;fill:#ffffff;fill-opacity:0.94117647;stroke:none;stroke-width:1.16194916px;stroke-opacity:1">Changelog</tspan></text>
  </g>
  <g
     inkscape:groupmode="layer"
     id="layer3"
     inkscape:label="Megafono"
     style="display:inline"
     transform="translate(0,730)" />
  <defs
     id="defs28">
    <path
       id="path0_fill"
       d="m 59.1375,61.944 16.64,-37.824 h 14.336 v 2.432 c -1.3653,0.0427 -2.4747,0.2133 -3.328,0.512 -0.8107,0.2987 -1.4507,0.8107 -1.92,1.536 -0.4267,0.6827 -0.7253,1.6427 -0.896,2.88 -0.128,1.2373 -0.192,2.816 -0.192,4.736 v 25.088 c 0,2.1333 0.0853,3.8187 0.256,5.056 0.1707,1.2373 0.4907,2.1973 0.96,2.88 0.512,0.6827 1.216,1.1307 2.112,1.344 0.9387,0.2133 2.1547,0.3413 3.648,0.384 V 73.4 h -20.736 v -2.432 c 1.4933,-0.0427 2.688,-0.1707 3.584,-0.384 0.9387,-0.256 1.664,-0.704 2.176,-1.344 0.512,-0.64 0.8533,-1.536 1.024,-2.688 0.1707,-1.1947 0.256,-2.7947 0.256,-4.8 V 32.056 h -0.64 L 57.7295,74.04 h -1.408 L 37.9535,32.056 h -0.256 v 29.248 c 0,2.1333 0.0853,3.8187 0.256,5.056 0.1707,1.2373 0.4907,2.1973 0.96,2.88 0.512,0.6827 1.216,1.1307 2.112,1.344 0.9387,0.2133 2.1547,0.3413 3.648,0.384 V 73.4 h -17.856 v -2.432 c 1.4933,-0.0427 2.688,-0.1707 3.584,-0.384 0.9387,-0.256 1.664,-0.704 2.176,-1.344 0.512,-0.64 0.8533,-1.536 1.024,-2.688 0.1707,-1.1947 0.256,-2.7947 0.256,-4.8 V 35.768 c 0,-1.792 -0.0853,-3.264 -0.256,-4.416 -0.128,-1.1947 -0.4267,-2.1333 -0.896,-2.816 -0.4267,-0.6827 -1.0667,-1.152 -1.92,-1.408 -0.8533,-0.2987 -1.9627,-0.4907 -3.328,-0.576 V 24.12 h 15.296 l 16.128,37.824 z m 66.3955,5.504 c -3.627,4.3947 -8.128,6.592 -13.504,6.592 -2.517,0 -4.8,-0.4053 -6.848,-1.216 -2.048,-0.8533 -3.819,-2.0267 -5.312,-3.52 -1.4507,-1.536 -2.5813,-3.3493 -3.392,-5.44 -0.8107,-2.1333 -1.216,-4.48 -1.216,-7.04 0,-2.6027 0.4267,-5.0133 1.28,-7.232 0.8533,-2.2187 2.048,-4.1173 3.584,-5.696 1.579,-1.5787 3.435,-2.816 5.568,-3.712 2.176,-0.896 4.544,-1.344 7.104,-1.344 4.139,0 7.339,1.1307 9.6,3.392 2.261,2.2187 3.392,5.4187 3.392,9.6 0,0.5973 -0.128,0.96 -0.384,1.088 -0.213,0.128 -0.747,0.192 -1.6,0.192 h -21.056 c -0.085,0.3413 -0.149,0.768 -0.192,1.28 -0.043,0.4693 -0.064,1.0027 -0.064,1.6 0,2.2187 0.256,4.2453 0.768,6.08 0.555,1.792 1.323,3.328 2.304,4.608 1.024,1.28 2.219,2.2827 3.584,3.008 1.408,0.6827 2.965,1.024 4.672,1.024 1.792,0 3.456,-0.384 4.992,-1.152 1.536,-0.8107 3.115,-2.112 4.736,-3.904 z m -10.56,-17.28 c 0.853,0 1.536,-0.0213 2.048,-0.064 0.512,-0.0427 0.896,-0.128 1.152,-0.256 0.256,-0.128 0.427,-0.2987 0.512,-0.512 0.085,-0.256 0.128,-0.576 0.128,-0.96 0,-1.9627 -0.64,-3.52 -1.92,-4.672 -1.237,-1.1947 -2.944,-1.792 -5.12,-1.792 -4.608,0 -7.467,2.752 -8.576,8.256 z m 31.375,9.472 c 1.792,0 3.179,-0.8107 4.16,-2.432 1.024,-1.6213 1.537,-3.904 1.537,-6.848 0,-2.9013 -0.513,-5.1413 -1.537,-6.72 -0.981,-1.6213 -2.389,-2.432 -4.223,-2.432 -1.835,0 -3.307,0.8107 -4.417,2.432 -1.066,1.6213 -1.599,3.84 -1.599,6.656 0,2.816 0.554,5.0773 1.663,6.784 1.11,1.7067 2.582,2.56 4.416,2.56 z m -3.52,7.488 c 1.024,0.0853 1.963,0.1707 2.817,0.256 0.853,0.0853 1.685,0.1707 2.495,0.256 0.854,0.0853 1.686,0.192 2.496,0.32 0.854,0.128 1.771,0.256 2.753,0.384 3.072,0.4693 5.525,1.664 7.36,3.584 1.877,1.8773 2.815,4.2453 2.815,7.104 0,3.584 -1.429,6.3147 -4.287,8.192 -2.816,1.8773 -6.912,2.816 -12.288,2.816 -2.39,0 -4.587,-0.2133 -6.593,-0.64 -1.962,-0.4267 -3.648,-1.0453 -5.056,-1.856 -1.408,-0.768 -2.517,-1.7067 -3.327,-2.816 -0.769,-1.1093 -1.152,-2.3253 -1.152,-3.648 0,-0.896 0.149,-1.728 0.448,-2.496 0.298,-0.768 0.704,-1.4507 1.215,-2.048 0.512,-0.5547 1.11,-1.0027 1.793,-1.344 0.725,-0.3413 1.471,-0.512 2.239,-0.512 1.451,0 2.753,0.448 3.904,1.344 -1.151,0.256 -2.09,0.8747 -2.816,1.856 -0.725,1.024 -1.088,2.176 -1.088,3.456 0,1.8773 0.918,3.328 2.753,4.352 1.877,1.024 4.522,1.536 7.935,1.536 7.297,0 10.944,-2.24 10.944,-6.72 0,-1.7067 -0.576,-3.136 -1.727,-4.288 -1.152,-1.1093 -2.518,-1.7707 -4.096,-1.984 -1.025,-0.128 -2.091,-0.2773 -3.201,-0.448 -1.066,-0.128 -2.133,-0.256 -3.199,-0.384 -1.024,-0.128 -1.984,-0.2347 -2.88,-0.32 -0.896,-0.0853 -1.622,-0.1707 -2.177,-0.256 -2.389,-0.256 -4.202,-0.896 -5.439,-1.92 -1.238,-1.024 -1.856,-2.432 -1.856,-4.224 0,-1.4933 0.618,-2.816 1.856,-3.968 1.237,-1.152 2.794,-1.8773 4.672,-2.176 V 60.28 c -0.939,-0.384 -1.814,-0.9173 -2.624,-1.6 -0.811,-0.7253 -1.515,-1.536 -2.112,-2.432 -0.555,-0.896 -1.003,-1.856 -1.344,-2.88 -0.342,-1.0667 -0.512,-2.1547 -0.512,-3.264 0,-1.6213 0.298,-3.1147 0.895,-4.48 0.64,-1.3653 1.515,-2.5387 2.624,-3.52 1.152,-1.024 2.496,-1.8133 4.033,-2.368 1.536,-0.5973 3.221,-0.896 5.055,-0.896 1.878,0 3.649,0.2987 5.313,0.896 1.663,0.5547 3.093,1.3867 4.288,2.496 1.45,-1.1947 2.73,-2.048 3.84,-2.56 1.109,-0.5547 2.154,-0.832 3.135,-0.832 1.537,0 2.753,0.3627 3.649,1.088 0.938,0.6827 1.408,1.6213 1.408,2.816 0,0.7253 -0.256,1.3013 -0.768,1.728 -0.47,0.4267 -1.067,0.64 -1.792,0.64 -0.598,0 -1.089,-0.1067 -1.472,-0.32 -0.384,-0.2133 -0.747,-0.4267 -1.089,-0.64 -0.298,-0.256 -0.618,-0.4907 -0.96,-0.704 -0.341,-0.2133 -0.768,-0.32 -1.28,-0.32 -1.024,0 -2.069,0.3627 -3.136,1.088 1.024,1.5787 1.537,3.5627 1.537,5.952 0,3.6267 -1.131,6.4853 -3.392,8.576 -2.262,2.048 -5.654,3.2427 -10.177,3.584 -2.602,0.2133 -4.416,0.4907 -5.439,0.832 -1.024,0.3413 -1.536,0.96 -1.536,1.856 0,0.6827 0.383,1.1947 1.151,1.536 0.769,0.2987 1.899,0.4907 3.392,0.576 z m 46.633,-12.672 c -2.432,0.9387 -4.501,1.856 -6.208,2.752 -1.664,0.896 -3.008,1.792 -4.032,2.688 -1.024,0.896 -1.771,1.792 -2.24,2.688 -0.427,0.896 -0.64,1.8133 -0.64,2.752 0,1.408 0.469,2.56 1.408,3.456 0.939,0.896 2.176,1.344 3.712,1.344 1.109,0 2.133,-0.2773 3.072,-0.832 0.981,-0.5547 1.835,-1.3013 2.56,-2.24 0.725,-0.9813 1.301,-2.112 1.728,-3.392 0.427,-1.3227 0.64,-2.7093 0.64,-4.16 z m 0,-2.752 V 49.08 c 0,-5.2053 -2.219,-7.808 -6.656,-7.808 -0.725,0 -1.344,0.064 -1.856,0.192 -0.512,0.128 -0.939,0.3413 -1.28,0.64 -0.341,0.2987 -0.661,0.7253 -0.96,1.28 -0.256,0.5547 -0.512,1.2373 -0.768,2.048 -0.469,1.2373 -0.939,2.0693 -1.408,2.496 -0.427,0.384 -1.067,0.576 -1.92,0.576 -2.133,0 -3.2,-1.0667 -3.2,-3.2 0,-2.048 1.088,-3.6267 3.264,-4.736 2.176,-1.152 5.269,-1.728 9.28,-1.728 4.267,0 7.296,0.768 9.088,2.304 1.792,1.4933 2.688,4.0533 2.688,7.68 V 63.16 c 0,4.864 0.96,7.296 2.88,7.296 0.597,0 1.173,-0.064 1.728,-0.192 0.555,-0.1707 1.024,-0.576 1.408,-1.216 l 0.896,1.536 c -0.512,0.9813 -1.451,1.8133 -2.816,2.496 -1.365,0.64 -2.795,0.96 -4.288,0.96 -1.877,0 -3.285,-0.5973 -4.224,-1.792 -0.896,-1.1947 -1.344,-2.88 -1.344,-5.056 h -0.32 c -1.109,2.0907 -2.645,3.7547 -4.608,4.992 -1.963,1.1947 -4.139,1.792 -6.528,1.792 -2.688,0 -4.8,-0.6827 -6.336,-2.048 -1.536,-1.3653 -2.304,-3.2 -2.304,-5.504 0,-1.024 0.171,-2.0053 0.512,-2.944 0.384,-0.9387 0.981,-1.8347 1.792,-2.688 0.811,-0.8533 1.877,-1.6853 3.2,-2.496 1.323,-0.8533 2.944,-1.7067 4.864,-2.56 z m 14.509,-11.2 h 7.233 v -4.608 c 0,-4.9067 1.28,-8.7253 3.839,-11.456 2.603,-2.7733 6.294,-4.16 11.073,-4.16 2.645,0 4.799,0.4053 6.464,1.216 1.664,0.8107 2.496,1.856 2.496,3.136 0,0.8533 -0.278,1.5787 -0.832,2.176 -0.513,0.5547 -1.174,0.832 -1.985,0.832 -0.511,0 -1.066,-0.1493 -1.664,-0.448 -0.554,-0.3413 -1.301,-0.896 -2.24,-1.664 -1.066,-0.896 -1.898,-1.472 -2.496,-1.728 -0.597,-0.2987 -1.301,-0.448 -2.111,-0.448 -2.56,0 -4.395,1.3013 -5.504,3.904 -0.385,0.8533 -0.662,1.8987 -0.833,3.136 -0.127,1.2373 -0.191,2.944 -0.191,5.12 v 4.992 h 10.303 v 3.008 h -10.303 v 19.584 c 0,1.5787 0.085,2.88 0.255,3.904 0.214,1.024 0.555,1.856 1.024,2.496 0.512,0.5973 1.195,1.024 2.048,1.28 0.854,0.2133 1.963,0.3413 3.329,0.384 v 2.24 h -18.177 v -2.24 c 1.195,-0.0427 2.155,-0.1493 2.88,-0.32 0.726,-0.2133 1.281,-0.576 1.664,-1.088 0.385,-0.5547 0.64,-1.3013 0.768,-2.24 0.129,-0.9813 0.193,-2.2827 0.193,-3.904 V 43.512 h -7.233 z m 45.017,-1.664 c 2.433,0 4.736,0.448 6.912,1.344 2.177,0.8533 4.075,2.048 5.697,3.584 1.663,1.536 2.965,3.3707 3.904,5.504 0.981,2.0907 1.472,4.3947 1.472,6.912 0,2.6027 -0.491,4.992 -1.472,7.168 -0.939,2.176 -2.241,4.0533 -3.904,5.632 -1.622,1.5787 -3.52,2.816 -5.697,3.712 -2.176,0.896 -4.479,1.344 -6.912,1.344 -2.389,0 -4.671,-0.4267 -6.848,-1.28 -2.133,-0.896 -4.01,-2.1333 -5.632,-3.712 -1.621,-1.5787 -2.901,-3.456 -3.839,-5.632 -0.939,-2.2187 -1.408,-4.6293 -1.408,-7.232 0,-2.5173 0.469,-4.8427 1.408,-6.976 0.938,-2.1333 2.218,-3.968 3.839,-5.504 1.622,-1.536 3.499,-2.7307 5.632,-3.584 2.177,-0.8533 4.459,-1.28 6.848,-1.28 z m 0,3.072 c -1.578,0 -3.029,0.3413 -4.352,1.024 -1.279,0.6827 -2.389,1.664 -3.328,2.944 -0.896,1.2373 -1.599,2.752 -2.111,4.544 -0.47,1.7493 -0.705,3.6907 -0.705,5.824 0,2.2187 0.235,4.224 0.705,6.016 0.512,1.792 1.215,3.328 2.111,4.608 0.939,1.2373 2.049,2.1973 3.328,2.88 1.281,0.6827 2.731,1.024 4.352,1.024 1.622,0 3.094,-0.3413 4.416,-1.024 1.323,-0.6827 2.454,-1.664 3.392,-2.944 0.939,-1.28 1.664,-2.816 2.177,-4.608 0.511,-1.792 0.768,-3.776 0.768,-5.952 0,-2.1333 -0.257,-4.0747 -0.768,-5.824 -0.513,-1.7493 -1.238,-3.2427 -2.177,-4.48 -0.938,-1.28 -2.069,-2.2613 -3.392,-2.944 -1.322,-0.7253 -2.794,-1.088 -4.416,-1.088 z m 34.9,21.44 c 0,1.7493 0.042,3.136 0.127,4.16 0.086,0.9813 0.299,1.7493 0.641,2.304 0.383,0.512 0.917,0.8533 1.599,1.024 0.726,0.1707 1.707,0.2987 2.944,0.384 V 73.4 h -16.767 v -2.176 c 1.194,-0.0853 2.133,-0.2133 2.816,-0.384 0.725,-0.1707 1.28,-0.512 1.664,-1.024 0.383,-0.512 0.618,-1.2373 0.704,-2.176 0.127,-0.9387 0.191,-2.2187 0.191,-3.84 v -8.512 c 0,-5.0773 -0.127,-8.1707 -0.383,-9.28 -0.129,-0.5547 -0.299,-1.0027 -0.512,-1.344 -0.171,-0.384 -0.448,-0.6613 -0.833,-0.832 -0.384,-0.2133 -0.874,-0.3413 -1.471,-0.384 -0.598,-0.0853 -1.366,-0.128 -2.304,-0.128 v -2.048 l 10.239,-2.432 0.769,6.336 h 0.255 c 1.622,-2.0053 3.521,-3.5627 5.697,-4.672 2.175,-1.1093 4.543,-1.664 7.104,-1.664 1.962,0 3.754,0.32 5.376,0.96 1.621,0.64 2.858,1.5147 3.711,2.624 0.726,0.9813 1.238,2.2613 1.537,3.84 0.298,1.536 0.447,3.6693 0.447,6.4 v 10.688 c 0,1.7493 0.043,3.136 0.129,4.16 0.127,0.9813 0.362,1.7493 0.704,2.304 0.341,0.512 0.853,0.8533 1.535,1.024 0.726,0.1707 1.665,0.2987 2.817,0.384 V 73.4 h -16.577 v -2.176 c 1.195,-0.0427 2.134,-0.1493 2.816,-0.32 0.726,-0.2133 1.259,-0.576 1.6,-1.088 0.385,-0.512 0.619,-1.2373 0.705,-2.176 0.128,-0.9813 0.191,-2.2613 0.191,-3.84 v -8.448 c 0,-2.432 -0.128,-4.48 -0.383,-6.144 -0.256,-1.664 -0.683,-3.008 -1.281,-4.032 -0.554,-1.024 -1.301,-1.7493 -2.239,-2.176 -0.939,-0.4693 -2.07,-0.704 -3.393,-0.704 -1.92,0 -3.69,0.512 -5.312,1.536 -1.578,0.9813 -2.816,2.3467 -3.712,4.096 -0.213,0.4267 -0.405,0.832 -0.576,1.216 -0.127,0.384 -0.234,0.832 -0.32,1.344 -0.085,0.512 -0.149,1.1093 -0.192,1.792 -0.042,0.64 -0.063,1.472 -0.063,2.496 z m 51.1,-24.512 c 2.433,0 4.736,0.448 6.912,1.344 2.177,0.8533 4.075,2.048 5.697,3.584 1.663,1.536 2.965,3.3707 3.904,5.504 0.981,2.0907 1.472,4.3947 1.472,6.912 0,2.6027 -0.491,4.992 -1.472,7.168 -0.939,2.176 -2.241,4.0533 -3.904,5.632 -1.622,1.5787 -3.52,2.816 -5.697,3.712 -2.176,0.896 -4.479,1.344 -6.912,1.344 -2.389,0 -4.671,-0.4267 -6.848,-1.28 -2.133,-0.896 -4.01,-2.1333 -5.632,-3.712 -1.621,-1.5787 -2.901,-3.456 -3.839,-5.632 -0.939,-2.2187 -1.408,-4.6293 -1.408,-7.232 0,-2.5173 0.469,-4.8427 1.408,-6.976 0.938,-2.1333 2.218,-3.968 3.839,-5.504 1.622,-1.536 3.499,-2.7307 5.632,-3.584 2.177,-0.8533 4.459,-1.28 6.848,-1.28 z m 0,3.072 c -1.578,0 -3.029,0.3413 -4.352,1.024 -1.279,0.6827 -2.389,1.664 -3.328,2.944 -0.896,1.2373 -1.599,2.752 -2.111,4.544 -0.47,1.7493 -0.705,3.6907 -0.705,5.824 0,2.2187 0.235,4.224 0.705,6.016 0.512,1.792 1.215,3.328 2.111,4.608 0.939,1.2373 2.049,2.1973 3.328,2.88 1.281,0.6827 2.731,1.024 4.352,1.024 1.622,0 3.094,-0.3413 4.416,-1.024 1.323,-0.6827 2.454,-1.664 3.392,-2.944 0.939,-1.28 1.664,-2.816 2.177,-4.608 0.511,-1.792 0.768,-3.776 0.768,-5.952 0,-2.1333 -0.257,-4.0747 -0.768,-5.824 -0.513,-1.7493 -1.238,-3.2427 -2.177,-4.48 -0.938,-1.28 -2.069,-2.2613 -3.392,-2.944 -1.322,-0.7253 -2.794,-1.088 -4.416,-1.088 z"
       inkscape:connector-curvature="0" />
    <path
       id="path1_fill"
       d="M 145,72.5 C 145,112.541 112.541,145 72.5,145 32.4594,145 0,112.541 0,72.5 0,32.4594 32.4594,0 72.5,0 112.541,0 145,32.4594 145,72.5 Z"
       inkscape:connector-curvature="0" />
    <path
       id="path2_fill"
       d="M 0.271999,1.89209e-6 H 0.125 C 0.125,1.89209e-6 0.0740001,0.0400015 6.10352e-8,0.0980015 0.0900001,0.0660015 0.178999,0.0350002 0.268999,0.00300024 c 0,0 0.001,-0.00199835 0.003,-0.00299834791 z"
       inkscape:connector-curvature="0" />
    <path
       id="path3_fill"
       d="M 82.3557,35.5422 C 78.1057,14.5192 68.8736,-1.35279 61.7337,0.0912144 58.6306,0.717214 56.4356,4.51521 55.2926,10.3312 c -3.755,4.283 -18.947,20.018 -46.51495,28.912 -0.701,0.226 -1.409,0.465 -2.119,0.714 -15.444,14.701 0.816,27.86 0.816,27.86 h -0.016 c 0.138,0.01 0.276,0.02 0.418,0.033 2.25095,0.22 6.59095,0.519 7.73795,2.921 0,0 4.559,5.978 5.181,17.375 0,0 1.658,10.36 15.127,8.495 0,0 1.968,-2.486 -0.415,-3.729 0,0 -0.725,-2.176 0.6221,-1.761 0,0 1.3489,-4.25 -2.2791,-5.389 l -0.726,-4.973 c 0,0 -2.176,-1.761 -3.212,-4.248 l 0.104,-3.834 c 0,0 -4.8699,-3.004 -0.4149,-7.252 0,0 27.659,-0.572 41.922,8.821 0.5029,0.415 1.0029,0.769 1.502,1.06 0.0289,0.023 0.0629,0.042 0.0919,0.065 0.326,0.253 0.694,0.409 1.081,0.503 1,0.385 1.979,0.504 2.92,0.313 7.14,-1.442 9.4841,-19.654 5.2371,-40.675 z m -21.8621,31.586 c -2.998,-0.872 -6.078,-1.442 -9.1649,-1.882 -6.309,-0.898 -12.7491,-1.229 -19.1201,-1.075 -1.806,0.044 -4.864,-1.907 -6.33,-2.88 -1.772,-1.178 -3.2619,-2.705 -4.3869,-4.512 -2.914,-4.682 -3.0781,-10.153 -0.6891,-15.063 1.187,-2.438 2.5951,-4.843 4.8411,-6.438 2.992,-2.125 6.444,-3.547 9.5419,-5.507 5.2141,-3.296 10.1891,-6.961 14.9761,-10.85 0.967,-0.787 5.5879,-6.058 5.8159,-7.445 -0.061,0.369 -0.104,0.736 -0.158,1.105 0.029,-0.082 0.0591,-0.162 0.069,-0.226 -0.264,1.595 -0.45,3.186 -0.591,4.771 -1.583,20.393 6.072,39.441 10.271,48.158 1.27,2.575 2.1341,4.034 2.1341,4.034 -0.056,-0.083 -0.1261,-0.165 -0.1981,-0.245 0.417,0.769 0.665,1.188 0.665,1.188 -1.078,-1.642 -5.9,-2.615 -7.676,-3.133 z m 9.786,-4.487 c -0.258,0.06 -0.531,0.02 -0.8119,-0.065 -0.006,10e-4 -0.0101,0.006 -0.0161,0.008 -2.954,0.689 -7.626,-8.492 -10.437,-20.509 -2.81,-12.017 -2.6929,-22.317 0.2591,-23.009 0.257,-0.06 0.5309,-0.02 0.8119,0.065 0.007,-0.001 0.011,-0.006 0.016,-0.007 2.953,-0.689 7.6251,8.492 10.4371,20.51 2.8099,12.016 2.6919,22.316 -0.2591,23.007 z"
       inkscape:connector-curvature="0" />
    <path
       id="path4_fill"
       d="M 16.795,28.476 C 11.158,28.476 6.589,22.264 6.589,14.601 6.589,7.239 10.81,1.232 16.14,0.770998 14.925,0.277998 13.63,-1.7395e-6 12.28,-1.7395e-6 5.498,-1.7395e-6 0,6.742 0,15.057 c 0,8.316 5.498,15.058 12.28,15.058 2.072,0 4.021,-0.636 5.733,-1.746 -0.4,0.064 -0.805,0.107 -1.218,0.107 z"
       inkscape:connector-curvature="0" />
  </defs>
</svg>
