<svg xmlns="http://www.w3.org/2000/svg" xmlns:xlink="http://www.w3.org/1999/xlink" width="1750" height="1750">
    <path fill="#0e2430" d="M0 0h1750v1750H0z"/>
    <text x="142" y="1400" font-weight="700" font-size="259.8" font-family="Open Sans" letter-spacing="0" word-spacing="0" fill="#fff" stroke-width="1.242">
        Megafono
    </text>
    <g style="mix-blend-mode:normal" fill="#fff">
        <use xlink:href="#path2_fill" transform="translate(625.215 568.813) scale(8.12679)" style="mix-blend-mode:normal" width="100%" height="100%"/>
        <use xlink:href="#path3_fill" transform="translate(573.289 244.124) scale(8.12679)" style="mix-blend-mode:normal" width="100%" height="100%"/>
        <use xlink:href="#path4_fill" transform="translate(490.221 563.393) scale(8.12679)" style="mix-blend-mode:normal" width="100%" height="100%"/>
    </g>
    <defs id="defs28">
        <path id="path0_fill" d="M59.138 61.944l16.64-37.824h14.335v2.432c-1.365.043-2.474.213-3.327.512a3.79 3.79 0 0 0-1.92 1.536c-.427.683-.726 1.643-.897 2.88-.127 1.237-.191 2.816-.191 4.736v25.088c0 2.133.085 3.819.255 5.056.171 1.237.491 2.197.96 2.88.513.683 1.217 1.13 2.113 1.344.938.213 2.154.341 3.647.384V73.4H70.017v-2.432c1.494-.043 2.688-.17 3.584-.384.94-.256 1.664-.704 2.176-1.344.512-.64.854-1.536 1.024-2.688.171-1.195.256-2.795.256-4.8V32.056h-.64L57.73 74.04h-1.407l-18.37-41.984h-.256v29.248c0 2.133.086 3.819.256 5.056.171 1.237.491 2.197.96 2.88.513.683 1.217 1.13 2.113 1.344.938.213 2.154.341 3.647.384V73.4H26.819v-2.432c1.493-.043 2.688-.17 3.584-.384.938-.256 1.664-.704 2.176-1.344.511-.64.853-1.536 1.023-2.688.171-1.195.257-2.795.257-4.8V35.768c0-1.792-.086-3.264-.256-4.416-.128-1.195-.427-2.133-.896-2.816-.427-.683-1.067-1.152-1.92-1.408-.854-.299-1.963-.49-3.329-.576V24.12h15.296l16.129 37.824zm66.395 5.504c-3.627 4.395-8.128 6.592-13.504 6.592-2.517 0-4.8-.405-6.848-1.216-2.048-.853-3.819-2.027-5.312-3.52-1.45-1.536-2.581-3.35-3.392-5.44-.81-2.133-1.216-4.48-1.216-7.04 0-2.603.427-5.013 1.28-7.232.853-2.219 2.048-4.117 3.584-5.696 1.579-1.579 3.435-2.816 5.568-3.712 2.176-.896 4.544-1.344 7.104-1.344 4.139 0 7.339 1.13 9.6 3.392 2.261 2.219 3.392 5.419 3.392 9.6 0 .597-.128.96-.384 1.088-.213.128-.747.192-1.6.192h-21.056a8.291 8.291 0 0 0-.192 1.28c-.043.47-.064 1.003-.064 1.6 0 2.219.256 4.245.768 6.08.555 1.792 1.323 3.328 2.304 4.608 1.024 1.28 2.219 2.283 3.584 3.008 1.408.683 2.965 1.024 4.672 1.024 1.792 0 3.456-.384 4.992-1.152 1.536-.81 3.115-2.112 4.736-3.904zm-10.56-17.28c.853 0 1.536-.021 2.048-.064s.896-.128 1.152-.256c.256-.128.427-.299.512-.512.085-.256.128-.576.128-.96 0-1.963-.64-3.52-1.92-4.672-1.237-1.195-2.944-1.792-5.12-1.792-4.608 0-7.467 2.752-8.576 8.256zm31.375 9.472c1.792 0 3.179-.81 4.16-2.432 1.024-1.621 1.537-3.904 1.537-6.848 0-2.901-.513-5.141-1.537-6.72-.981-1.621-2.389-2.432-4.223-2.432-1.835 0-3.307.81-4.417 2.432-1.066 1.621-1.599 3.84-1.599 6.656s.554 5.077 1.663 6.784c1.11 1.707 2.582 2.56 4.416 2.56zm-3.52 7.488c1.024.085 1.963.17 2.817.256.853.085 1.685.17 2.495.256.854.085 1.686.192 2.496.32.854.128 1.771.256 2.753.384 3.072.47 5.525 1.664 7.36 3.584 1.877 1.877 2.815 4.245 2.815 7.104 0 3.584-1.429 6.315-4.287 8.192-2.816 1.877-6.912 2.816-12.288 2.816-2.39 0-4.587-.213-6.593-.64-1.962-.427-3.648-1.045-5.056-1.856-1.408-.768-2.517-1.707-3.327-2.816a6.266 6.266 0 0 1-1.152-3.648c0-.896.149-1.728.448-2.496a7.043 7.043 0 0 1 1.215-2.048 6.175 6.175 0 0 1 1.793-1.344 5.2 5.2 0 0 1 2.239-.512c1.451 0 2.753.448 3.904 1.344-1.151.256-2.09.875-2.816 1.856a5.839 5.839 0 0 0-1.088 3.456c0 1.877.918 3.328 2.753 4.352 1.877 1.024 4.522 1.536 7.935 1.536 7.297 0 10.944-2.24 10.944-6.72 0-1.707-.576-3.136-1.727-4.288a7.146 7.146 0 0 0-4.096-1.984 114.108 114.108 0 0 1-3.201-.448l-3.199-.384a98.78 98.78 0 0 0-2.88-.32 39.684 39.684 0 0 1-2.177-.256c-2.389-.256-4.202-.896-5.439-1.92-1.238-1.024-1.856-2.432-1.856-4.224 0-1.493.618-2.816 1.856-3.968 1.237-1.152 2.794-1.877 4.672-2.176v-.256a9.831 9.831 0 0 1-2.624-1.6 12.696 12.696 0 0 1-2.112-2.432 13.62 13.62 0 0 1-1.344-2.88 10.627 10.627 0 0 1-.512-3.264c0-1.621.298-3.115.895-4.48a10.724 10.724 0 0 1 2.624-3.52c1.152-1.024 2.496-1.813 4.033-2.368 1.536-.597 3.221-.896 5.055-.896 1.878 0 3.649.299 5.313.896 1.663.555 3.093 1.387 4.288 2.496 1.45-1.195 2.73-2.048 3.84-2.56 1.109-.555 2.154-.832 3.135-.832 1.537 0 2.753.363 3.649 1.088.938.683 1.408 1.621 1.408 2.816 0 .725-.256 1.301-.768 1.728-.47.427-1.067.64-1.792.64-.598 0-1.089-.107-1.472-.32a24.985 24.985 0 0 1-1.089-.64 7.825 7.825 0 0 0-.96-.704c-.341-.213-.768-.32-1.28-.32-1.024 0-2.069.363-3.136 1.088 1.024 1.579 1.537 3.563 1.537 5.952 0 3.627-1.131 6.485-3.392 8.576-2.262 2.048-5.654 3.243-10.177 3.584-2.602.213-4.416.49-5.439.832-1.024.341-1.536.96-1.536 1.856 0 .683.383 1.195 1.151 1.536.769.299 1.899.49 3.392.576zm46.633-12.672c-2.432.939-4.501 1.856-6.208 2.752-1.664.896-3.008 1.792-4.032 2.688-1.024.896-1.771 1.792-2.24 2.688a6.331 6.331 0 0 0-.64 2.752c0 1.408.469 2.56 1.408 3.456.939.896 2.176 1.344 3.712 1.344a5.932 5.932 0 0 0 3.072-.832 8.514 8.514 0 0 0 2.56-2.24c.725-.981 1.301-2.112 1.728-3.392.427-1.323.64-2.71.64-4.16zm0-2.752V49.08c0-5.205-2.219-7.808-6.656-7.808-.725 0-1.344.064-1.856.192s-.939.341-1.28.64c-.341.299-.661.725-.96 1.28a17.638 17.638 0 0 0-.768 2.048c-.469 1.237-.939 2.07-1.408 2.496-.427.384-1.067.576-1.92.576-2.133 0-3.2-1.067-3.2-3.2 0-2.048 1.088-3.627 3.264-4.736 2.176-1.152 5.269-1.728 9.28-1.728 4.267 0 7.296.768 9.088 2.304 1.792 1.493 2.688 4.053 2.688 7.68V63.16c0 4.864.96 7.296 2.88 7.296.597 0 1.173-.064 1.728-.192.555-.17 1.024-.576 1.408-1.216l.896 1.536c-.512.981-1.451 1.813-2.816 2.496a9.986 9.986 0 0 1-4.288.96c-1.877 0-3.285-.597-4.224-1.792-.896-1.195-1.344-2.88-1.344-5.056h-.32c-1.109 2.09-2.645 3.755-4.608 4.992-1.963 1.195-4.139 1.792-6.528 1.792-2.688 0-4.8-.683-6.336-2.048-1.536-1.365-2.304-3.2-2.304-5.504 0-1.024.171-2.005.512-2.944.384-.939.981-1.835 1.792-2.688.811-.853 1.877-1.685 3.2-2.496 1.323-.853 2.944-1.707 4.864-2.56zm14.509-11.2h7.233v-4.608c0-4.907 1.28-8.725 3.839-11.456 2.603-2.773 6.294-4.16 11.073-4.16 2.645 0 4.799.405 6.464 1.216 1.664.81 2.496 1.856 2.496 3.136 0 .853-.278 1.579-.832 2.176-.513.555-1.174.832-1.985.832-.511 0-1.066-.15-1.664-.448-.554-.341-1.301-.896-2.24-1.664-1.066-.896-1.898-1.472-2.496-1.728-.597-.299-1.301-.448-2.111-.448-2.56 0-4.395 1.301-5.504 3.904-.385.853-.662 1.899-.833 3.136-.127 1.237-.191 2.944-.191 5.12v4.992h10.303v3.008h-10.303v19.584c0 1.579.085 2.88.255 3.904.214 1.024.555 1.856 1.024 2.496.512.597 1.195 1.024 2.048 1.28.854.213 1.963.341 3.329.384v2.24h-18.177v-2.24c1.195-.043 2.155-.15 2.88-.32.726-.213 1.281-.576 1.664-1.088.385-.555.64-1.301.768-2.24.129-.981.193-2.283.193-3.904V43.512h-7.233zm45.017-1.664c2.433 0 4.736.448 6.912 1.344 2.177.853 4.075 2.048 5.697 3.584 1.663 1.536 2.965 3.37 3.904 5.504.981 2.09 1.472 4.395 1.472 6.912 0 2.603-.491 4.992-1.472 7.168-.939 2.176-2.241 4.053-3.904 5.632-1.622 1.579-3.52 2.816-5.697 3.712-2.176.896-4.479 1.344-6.912 1.344-2.389 0-4.671-.427-6.848-1.28a17.976 17.976 0 0 1-5.632-3.712c-1.621-1.579-2.901-3.456-3.839-5.632-.939-2.219-1.408-4.63-1.408-7.232 0-2.517.469-4.843 1.408-6.976.938-2.133 2.218-3.968 3.839-5.504a17.628 17.628 0 0 1 5.632-3.584 18.596 18.596 0 0 1 6.848-1.28zm0 3.072c-1.578 0-3.029.341-4.352 1.024-1.279.683-2.389 1.664-3.328 2.944-.896 1.237-1.599 2.752-2.111 4.544-.47 1.75-.705 3.69-.705 5.824 0 2.219.235 4.224.705 6.016.512 1.792 1.215 3.328 2.111 4.608.939 1.237 2.049 2.197 3.328 2.88 1.281.683 2.731 1.024 4.352 1.024 1.622 0 3.094-.341 4.416-1.024 1.323-.683 2.454-1.664 3.392-2.944.939-1.28 1.664-2.816 2.177-4.608.511-1.792.768-3.776.768-5.952 0-2.133-.257-4.075-.768-5.824-.513-1.75-1.238-3.243-2.177-4.48-.938-1.28-2.069-2.261-3.392-2.944-1.322-.725-2.794-1.088-4.416-1.088zm34.9 21.44c0 1.75.042 3.136.127 4.16.086.981.299 1.75.641 2.304.383.512.917.853 1.599 1.024.726.17 1.707.299 2.944.384V73.4h-16.767v-2.176c1.194-.085 2.133-.213 2.816-.384.725-.17 1.28-.512 1.664-1.024.383-.512.618-1.237.704-2.176.127-.939.191-2.219.191-3.84v-8.512c0-5.077-.127-8.17-.383-9.28-.129-.555-.299-1.003-.512-1.344a1.586 1.586 0 0 0-.833-.832c-.384-.213-.874-.341-1.471-.384-.598-.085-1.366-.128-2.304-.128v-2.048l10.239-2.432.769 6.336h.255c1.622-2.005 3.521-3.563 5.697-4.672 2.175-1.11 4.543-1.664 7.104-1.664 1.962 0 3.754.32 5.376.96 1.621.64 2.858 1.515 3.711 2.624.726.981 1.238 2.261 1.537 3.84.298 1.536.447 3.67.447 6.4v10.688c0 1.75.043 3.136.129 4.16.127.981.362 1.75.704 2.304.341.512.853.853 1.535 1.024.726.17 1.665.299 2.817.384V73.4h-16.577v-2.176c1.195-.043 2.134-.15 2.816-.32.726-.213 1.259-.576 1.6-1.088.385-.512.619-1.237.705-2.176.128-.981.191-2.261.191-3.84v-8.448c0-2.432-.128-4.48-.383-6.144-.256-1.664-.683-3.008-1.281-4.032-.554-1.024-1.301-1.75-2.239-2.176-.939-.47-2.07-.704-3.393-.704-1.92 0-3.69.512-5.312 1.536-1.578.981-2.816 2.347-3.712 4.096-.213.427-.405.832-.576 1.216a9.128 9.128 0 0 0-.32 1.344 18.01 18.01 0 0 0-.192 1.792 39.69 39.69 0 0 0-.063 2.496zm51.1-24.512c2.433 0 4.736.448 6.912 1.344 2.177.853 4.075 2.048 5.697 3.584 1.663 1.536 2.965 3.37 3.904 5.504.981 2.09 1.472 4.395 1.472 6.912 0 2.603-.491 4.992-1.472 7.168-.939 2.176-2.241 4.053-3.904 5.632-1.622 1.579-3.52 2.816-5.697 3.712-2.176.896-4.479 1.344-6.912 1.344-2.389 0-4.671-.427-6.848-1.28a17.976 17.976 0 0 1-5.632-3.712c-1.621-1.579-2.901-3.456-3.839-5.632-.939-2.219-1.408-4.63-1.408-7.232 0-2.517.469-4.843 1.408-6.976.938-2.133 2.218-3.968 3.839-5.504a17.628 17.628 0 0 1 5.632-3.584 18.596 18.596 0 0 1 6.848-1.28zm0 3.072c-1.578 0-3.029.341-4.352 1.024-1.279.683-2.389 1.664-3.328 2.944-.896 1.237-1.599 2.752-2.111 4.544-.47 1.75-.705 3.69-.705 5.824 0 2.219.235 4.224.705 6.016.512 1.792 1.215 3.328 2.111 4.608.939 1.237 2.049 2.197 3.328 2.88 1.281.683 2.731 1.024 4.352 1.024 1.622 0 3.094-.341 4.416-1.024 1.323-.683 2.454-1.664 3.392-2.944.939-1.28 1.664-2.816 2.177-4.608.511-1.792.768-3.776.768-5.952 0-2.133-.257-4.075-.768-5.824-.513-1.75-1.238-3.243-2.177-4.48-.938-1.28-2.069-2.261-3.392-2.944-1.322-.725-2.794-1.088-4.416-1.088z"/>
        <path id="path1_fill" d="M145 72.5c0 40.041-32.459 72.5-72.5 72.5C32.46 145 0 112.541 0 72.5 0 32.46 32.46 0 72.5 0 112.541 0 145 32.46 145 72.5z"/>
        <path id="path2_fill" d="M.272 0H.125L0 .098.269.003.272 0z"/>
        <path id="path3_fill" d="M82.356 35.542C78.106 14.52 68.874-1.353 61.734.092c-3.103.625-5.298 4.423-6.441 10.24-3.755 4.282-18.947 20.017-46.515 28.911a88.08 88.08 0 0 0-2.12.714c-15.443 14.701.817 27.86.817 27.86h-.016c.138.01.276.02.418.033 2.25.22 6.59.52 7.738 2.921 0 0 4.559 5.978 5.18 17.375 0 0 1.659 10.36 15.128 8.495 0 0 1.968-2.486-.415-3.729 0 0-.725-2.176.622-1.76 0 0 1.349-4.25-2.28-5.39l-.725-4.973s-2.176-1.76-3.212-4.248l.104-3.834s-4.87-3.004-.415-7.252c0 0 27.659-.572 41.922 8.821.503.415 1.003.77 1.502 1.06.029.023.063.042.092.065a2.82 2.82 0 0 0 1.08.503c1 .385 1.98.504 2.92.313 7.14-1.442 9.485-19.654 5.238-40.675zM60.494 67.128c-2.998-.872-6.078-1.442-9.165-1.882-6.31-.898-12.75-1.229-19.12-1.075-1.806.044-4.864-1.907-6.33-2.88a14.799 14.799 0 0 1-4.387-4.512c-2.914-4.682-3.078-10.153-.69-15.063 1.188-2.438 2.596-4.843 4.842-6.438 2.992-2.125 6.444-3.547 9.542-5.507 5.214-3.296 10.189-6.96 14.976-10.85.967-.787 5.588-6.058 5.816-7.445-.061.37-.104.736-.158 1.105.029-.082.059-.162.069-.226a63.776 63.776 0 0 0-.591 4.771c-1.583 20.393 6.072 39.441 10.27 48.158 1.27 2.575 2.135 4.034 2.135 4.034a2.311 2.311 0 0 0-.198-.245c.417.77.665 1.188.665 1.188-1.078-1.642-5.9-2.615-7.676-3.133zm9.786-4.487c-.258.06-.531.02-.812-.065-.006.001-.01.006-.016.008-2.954.69-7.626-8.492-10.437-20.509-2.81-12.017-2.693-22.317.259-23.009.257-.06.53-.02.812.065.007 0 .01-.006.016-.007 2.953-.689 7.625 8.492 10.437 20.51 2.81 12.016 2.692 22.316-.26 23.007z"/>
        <path id="path4_fill" d="M16.795 28.476c-5.637 0-10.206-6.212-10.206-13.875 0-7.362 4.221-13.369 9.551-13.83A10.224 10.224 0 0 0 12.28 0C5.498 0 0 6.742 0 15.057c0 8.316 5.498 15.058 12.28 15.058 2.072 0 4.021-.636 5.733-1.746-.4.064-.805.107-1.218.107z"/>
    </defs>
</svg>
